<svg width="38" height="40" viewBox="0 0 38 40" fill="none" xmlns="http://www.w3.org/2000/svg">
<g clip-path="url(#clip0_7_178)">
<path d="M34.5405 8.57571L32.9612 10.2629C32.9612 10.2629 35.8348 22.6757 34.6614 37.2571C34.6614 37.2571 36.5229 35.2486 36.4423 30.5086C36.3617 25.7686 35.6735 15.7657 35.6735 15.7657C35.6735 15.7657 37.738 16.5871 37.3738 20.0929C37.3738 20.0929 39.146 17.7686 36.7259 14.9229C34.5405 12.3529 34.5405 8.57571 34.5405 8.57571Z" fill="#663F47"/>
<path d="M35.1063 5.52286V6.72857C35.1063 6.72857 29.7219 11.2271 26.808 12.3529V11.1471L35.1063 5.52286Z" fill="#663F47"/>
<path d="M23.2866 7.83286C23.2866 7.83286 24.136 9.46 24.4599 9.5L23.6912 9.44V11.87C23.6912 11.87 23.6508 13.3971 22.1737 13.3971C20.6966 13.3971 20.5944 12.6343 20.5944 12.6343C20.5944 12.6343 19.9264 13.5786 18.874 13.3971C17.8216 13.2157 17.2947 11.81 17.7612 9.90286C17.7612 9.90286 18.0246 8.89858 18.4695 8.57715C18.4695 8.57715 18.0851 12.2129 19.2987 11.9914C20.4202 11.7871 20.3511 9.68286 20.2863 8.68143C20.2763 8.53715 20.3295 8.39572 20.4303 8.29143L21.1213 7.57286C21.1213 7.57286 20.6563 12.1929 22.0125 12.0114C23.1124 11.8643 22.8144 9.86715 22.6618 9.11858C22.6244 8.93429 22.6632 8.74429 22.7683 8.59L23.2866 7.83286Z" fill="#663F47"/>
<path d="M20.8781 0L19.9063 1.54714C19.9063 1.54714 20.7975 2.23 20.534 6.60857C20.534 6.60857 22.7597 3.45429 20.8781 0Z" fill="#663F47"/>
<path d="M12.911 10.7043C12.911 10.7043 12.7152 10.6843 12.4316 10.6343C13.1384 9.86286 13.5919 8.99858 13.4696 8.09429C13.1053 5.40286 9.62422 8.09429 9.36076 9.27858C9.20096 10 9.33773 10.6771 10.3916 11.0986C9.23551 11.9757 7.57414 12.9914 5.25195 14.1029C5.25195 14.1029 6.60812 14.22 7.53958 13.8186C8.0737 13.5886 10.0777 12.6786 11.6138 11.4057C12.0472 11.47 12.5525 11.5129 13.1471 11.53L12.911 10.7043ZM10.9588 8.35572C12.4733 7.08715 13.769 8.09286 11.3058 10.3429C10.4117 10.0114 9.7034 9.40715 10.9588 8.35572Z" fill="#663F47"/>
<path d="M29.8745 16.2886C29.8745 16.4386 30.269 19.2414 31.2105 19.8443C32.1521 20.4471 33.2146 23.8514 33.1239 26.1114C33.1239 26.1114 32.4861 25.69 32.3349 24.7257C32.1838 23.7614 31.1515 21.8329 30.4835 21.4714C30.4835 21.4714 30.9082 24.5143 31.212 25.2371C31.5158 25.96 32.643 33.7071 31.5186 36.66C30.3957 39.6129 24.5622 42.8314 21.3445 35.6614C21.3445 35.6614 20.3425 40.9343 14.9078 39.5486C9.47302 38.1629 10.3541 32.74 10.3541 31.5343C10.3541 30.3286 12.6619 22.6771 11.4166 21.7429C10.1713 20.8086 8.31985 24.7871 6.83267 28.1457C5.34549 31.5043 1.945 32.5586 0.456388 28.4914C-1.03223 24.4243 1.60956 21.11 1.60956 21.11C1.60956 21.11 0.306663 27.7629 2.94557 27.9786C6.98384 28.31 9.15629 17.3486 12.145 18.0971C12.145 18.0971 13.9965 17.6157 13.2075 22.1643C12.4186 26.7129 10.7486 33.07 13.268 34.6371C14.8862 35.6429 17.1176 35.7543 18.6365 34.9157C19.6831 34.3371 20.2936 33.2029 20.2676 32.0143L19.9466 17.5257L21.464 15.8986C21.464 15.8986 21.4942 32.83 23.802 34.9386C26.1098 37.0471 30.4202 35.6314 30.5425 32.3771C30.6635 29.1229 28.3255 21.38 28.3255 21.38C28.3255 21.38 27.8705 19.9343 28.4162 18.8186C28.9632 17.7043 29.8745 16.2886 29.8745 16.2886Z" fill="#663F47"/>
</g>
<defs>
<clipPath id="clip0_7_178">
<rect width="38" height="40" fill="white"/>
</clipPath>
</defs>
</svg>
