<svg width="25" height="42" viewBox="0 0 25 42" fill="none" xmlns="http://www.w3.org/2000/svg">
<g clip-path="url(#clip0_7_155)">
<path d="M24.2768 31.8141C24.2768 35.2716 24.2768 38.5688 24.2768 41.9771C21.6471 41.9771 19.082 41.9771 16.2371 41.9771C16.2371 39.8961 16.1674 37.7848 16.2622 35.6806C16.3231 34.3259 15.6936 33.8498 14.5334 33.233C12.7125 32.2648 11.2225 32.9393 9.72366 33.6132C9.23066 33.8348 8.8342 34.7699 8.80177 35.3993C8.69011 37.5668 8.75878 39.7433 8.75878 42C6.00777 42 3.44399 42 0.766052 42C0.766052 38.6122 0.766052 35.2761 0.766052 31.8141C8.55365 31.8141 16.344 31.8141 24.2768 31.8141Z" fill="#663F47"/>
<path d="M12.5116 31.1369C8.79324 31.1372 5.07441 31.16 1.35676 31.108C0.901609 31.1017 0.452033 30.6957 -0.000183105 30.4747C0.442203 30.2445 0.883561 29.8159 1.32727 29.8134C8.7639 29.772 16.2008 29.7722 23.6374 29.8119C24.0927 29.8144 24.5457 30.2242 24.9998 30.4444C24.5555 30.675 24.114 31.0995 23.6664 31.106C19.9488 31.16 16.2302 31.1366 12.5116 31.1369Z" fill="#663F47"/>
<path d="M12.2933 18.3367C12.7546 19.1505 13.608 19.5349 14.4623 19.8911C15.5406 20.3408 16.662 20.6926 17.7279 21.1676C21.0737 22.6586 22.5623 24.7782 21.6619 28.7789C21.5946 29.0785 21.42 29.1078 21.1713 29.1068C19.982 29.1015 18.7927 29.1046 17.6034 29.1046C12.9162 29.1046 8.22896 29.0946 3.54187 29.1184C3.00323 29.1211 2.82951 28.9452 2.74176 28.4491C2.47662 26.9515 2.37553 25.4494 3.19999 24.1101C3.65925 23.3641 4.27639 22.6096 5.01003 22.1562C6.18122 21.4326 7.50706 20.9532 8.77097 20.3779C9.57915 20.0101 10.4165 19.6974 11.196 19.2784C11.6093 19.0563 11.9267 18.6599 12.2933 18.3367Z" fill="#663F47"/>
<path d="M23.2701 25.4419C23.1501 25.2967 22.9904 25.1688 22.9159 25.0036C22.068 23.1237 20.7238 21.7006 18.9064 20.7119C18.4647 20.4717 17.9964 20.2786 17.5596 20.0309C17.4205 19.952 17.2525 19.7671 17.2514 19.6295C17.2359 17.6773 17.2468 15.7249 17.2532 13.7726C17.2534 13.742 17.279 13.7113 17.3094 13.6437C19.3108 13.6437 21.3283 13.6437 23.409 13.6437C23.409 17.5329 23.409 21.4245 23.409 25.3163C23.3627 25.3581 23.3165 25.3999 23.2701 25.4419Z" fill="#663F47"/>
<path d="M14.6728 16.3628C14.2759 17.1727 13.303 17.6189 12.352 17.4272C11.3692 17.2291 10.6334 16.3665 10.5926 15.3645C10.552 14.3685 11.1466 13.5221 12.0731 13.2574C11.3537 14.4024 11.3111 15.2131 11.9316 15.9544C12.58 16.7291 13.3278 16.8405 14.6728 16.3628Z" fill="#663F47"/>
<path d="M17.2326 5.71626C17.2326 5.71626 16.2975 2.19535 19.6867 0.64493C20.1987 0.410793 20.3849 0 20.3849 0C20.3849 0 20.5497 0.364052 21.0793 0.63535C24.7133 2.49582 23.4721 5.71626 23.4721 5.71626H17.2326Z" fill="#663F47"/>
<path d="M17.2636 6.30487V13.1152H23.3886V6.30487H17.2636ZM20.0016 11.9706H18.4415V8.3359C18.4415 7.79926 18.7909 7.36408 19.2214 7.36408C19.6523 7.36408 20.0016 7.79926 20.0016 8.3359V11.9706ZM22.2723 11.9706H20.7117V8.3359C20.7117 7.79926 21.0612 7.36408 21.4922 7.36408C21.9231 7.36408 22.2723 7.79926 22.2723 8.3359V11.9706Z" fill="#663F47"/>
<path d="M23.831 6.47543C23.831 6.61667 23.7371 6.73134 23.6212 6.73134H17.0307C16.9151 6.73134 16.8214 6.61667 16.8214 6.47543V5.79291C16.8214 5.65167 16.9151 5.53714 17.0307 5.53714H23.6212C23.7371 5.53714 23.831 5.65167 23.831 5.79291V6.47543Z" fill="#663F47"/>
</g>
<defs>
<clipPath id="clip0_7_155">
<rect width="25" height="42" fill="white"/>
</clipPath>
</defs>
</svg>
