<svg width="38" height="38" viewBox="0 0 38 38" fill="none" xmlns="http://www.w3.org/2000/svg">
<g clip-path="url(#clip0_7_122)">
<path d="M31.1452 5.63184C32.7655 4.38129 33.7945 4.73806 34.278 6.60115C34.4965 7.44403 34.6117 8.32738 34.9285 9.12936C36.2085 12.3686 35.9497 15.6078 35.0976 18.88C34.7602 20.1756 34.5224 21.4984 34.2414 22.809C33.8291 24.7322 33.9986 26.0578 34.8964 27.9539C36.3888 27.6914 36.4093 27.7027 37.0014 29.146C37.2936 29.8579 37.6054 30.5627 37.8696 31.2849C38.1436 32.0339 38.0045 32.7087 37.2779 33.1055C34.3961 34.6798 31.511 36.2475 28.604 37.7738C27.7959 38.1982 27.1557 37.8736 26.7928 36.9852C26.5397 36.3664 26.3262 35.7309 26.0966 35.1025C25.47 33.3875 25.4704 33.3875 26.8788 32.2451C25.9147 30.2935 25.2449 28.1847 23.6665 26.5394C22.3602 25.1778 22.3565 23.2989 22.1125 21.5459C22.0528 21.1166 22.0158 20.6655 22.0767 20.2407C22.4326 17.7618 21.7533 15.4701 20.909 13.1998C20.6757 12.5731 20.479 11.9317 20.2844 11.2908C19.7515 9.53745 20.1478 8.65994 21.864 7.89384C21.5829 6.22853 20.3169 4.2728 22.9556 3.21962C22.9202 2.85243 22.8663 2.46437 22.8477 2.07465C22.7737 0.532849 24.1689 -0.436878 25.5177 0.261626C25.9937 0.50823 26.3032 0.622144 26.8269 0.28541C27.807 -0.344244 28.9463 0.110993 29.422 1.2518C30.012 2.66758 30.5486 4.10798 31.1452 5.63184ZM27.9111 31.9388C29.8071 30.9319 31.6332 29.9914 33.4185 28.9775C33.6316 28.8565 33.7908 28.2739 33.6941 28.0127C32.8165 25.646 32.8922 23.2914 33.5942 20.9054C33.8299 20.1043 33.906 19.2556 34.1327 18.4511C35.0001 15.3729 35.0939 12.3327 33.9023 9.30295C33.6357 8.62489 33.5538 7.87298 33.381 7.15653C33.3185 6.89616 33.2864 6.61116 33.1547 6.3896C33.0317 6.18221 32.7638 5.88303 32.6157 5.91266C32.3841 5.95856 32.101 6.21101 32.0166 6.44217C31.8706 6.84233 31.7949 7.29506 31.8051 7.72276C31.8348 8.96204 31.785 10.2276 32.0224 11.431C32.2964 12.8213 31.9492 13.8762 31.0514 14.8956C28.9772 17.2502 28.3485 19.9712 29.1513 23.0418C29.2183 23.2989 28.9414 23.6481 28.8241 23.9548C28.6036 23.7445 28.2921 23.5743 28.1827 23.3156C28.0037 22.8916 27.9119 22.4159 27.8605 21.9528C27.568 19.3115 27.9556 16.8446 29.8429 14.8376C30.8979 13.716 31.0584 12.4637 31.0324 10.9294C30.9765 7.62637 29.5932 4.77102 28.5423 1.79091C28.3489 1.24304 27.9621 0.973064 27.3771 1.15958C26.7656 1.35445 26.8064 1.80384 26.9804 2.29705C27.103 2.6438 27.2042 2.99847 27.3264 3.34564C28.2814 6.06246 29.2562 8.77218 30.1885 11.4973C30.6901 12.9632 30.4202 13.4589 29.0509 14.1165C28.0671 14.5889 27.1038 15.1121 26.1661 15.6733C25.1005 16.3109 24.9725 16.3055 24.5253 15.1488C23.8254 13.3379 23.1629 11.512 22.4466 9.70811C22.347 9.45733 21.9265 9.08513 21.8315 9.1327C21.5393 9.27916 21.2653 9.56749 21.1176 9.86793C21.0197 10.0678 21.1106 10.3958 21.1859 10.6449C21.4188 11.4135 21.6447 12.1888 21.945 12.9315C22.8194 15.0938 23.5118 17.2744 23.0819 19.6666C23.0004 20.1202 23.0346 20.6104 23.0954 21.0728C23.3308 22.8557 23.3654 24.6842 24.6417 26.1743C25.3482 26.9988 25.9361 27.9439 26.4747 28.8948C26.9993 29.8191 27.3915 30.8205 27.9111 31.9388ZM27.9646 13.262C29.4417 12.7612 29.4549 12.7441 28.9665 11.3884C27.9013 8.43044 26.8463 5.46827 25.7469 2.52321C25.5169 1.90732 25.5185 0.773611 24.466 1.14206C23.4102 1.51134 23.9813 2.46813 24.2134 3.13158C25.328 6.32116 26.499 9.4903 27.6564 12.6644C27.7338 12.8756 27.8634 13.0679 27.9646 13.262ZM25.5317 14.752C27.0125 14.0998 27.0109 14.1007 26.5052 12.8113C26.3468 12.4074 26.1991 11.9989 26.0485 11.5921C25.2498 9.43146 24.4656 7.26502 23.6369 5.11652C23.5283 4.83486 23.1921 4.64334 22.9617 4.41009C22.7457 4.71302 22.4939 4.99718 22.3305 5.32682C22.2565 5.4762 22.3223 5.72865 22.3869 5.91183C23.4201 8.83477 24.4631 11.754 25.5317 14.752Z" fill="#663F47"/>
<path d="M3.18017 27.986C4.12363 25.9377 4.26024 23.9285 3.70518 21.7738C3.0629 19.2802 2.66544 16.7219 2.16675 14.1908C2.12149 13.9617 2.03879 13.7059 2.09516 13.4965C2.80286 10.8802 3.46243 8.24685 4.29192 5.67023C4.62397 4.63875 5.72132 4.59034 7.03839 5.39108C7.556 4.11758 8.06003 2.8516 8.58464 1.59437C9.27712 -0.065511 10.0902 -0.353842 11.6854 0.44105C11.8569 0.52659 12.1433 0.557885 12.296 0.470259C13.1209 -0.00166924 13.9266 -0.124763 14.6874 0.54787C15.4362 1.20965 15.2313 2.06004 15.0531 2.88915C15.0326 2.98387 14.9988 3.07567 14.9564 3.21796C17.8531 4.0408 16.5015 6.13757 16.2949 7.87631C18.1403 8.68706 18.4341 9.31964 17.8638 11.2299C17.7202 11.711 17.5712 12.1921 17.3919 12.6603C16.4052 15.2356 15.6975 17.8156 15.9143 20.6689C16.1089 23.2304 15.3272 25.5438 13.5558 27.5996C12.4638 28.8673 11.9368 30.6353 11.1723 32.1462C12.6321 33.3529 12.6301 33.3525 11.9475 35.0654C11.6874 35.718 11.4529 36.3818 11.1809 37.029C10.8065 37.9203 10.1815 38.2428 9.3553 37.8081C6.47922 36.295 3.62577 34.737 0.783025 33.1614C0.0605089 32.7608 -0.195828 32.104 0.155555 31.2758C0.469085 30.5368 0.757104 29.787 1.05952 29.043C1.59236 27.7311 1.80344 27.6238 3.18017 27.986ZM10.2218 31.8858C10.4736 31.3091 10.6514 30.8397 10.8777 30.3957C11.4833 29.2086 11.9014 27.8316 12.7757 26.8978C14.2072 25.3685 14.7997 23.6239 14.9075 21.6336C14.9692 20.4969 14.8515 19.3507 14.898 18.212C14.9318 17.3858 15.0001 16.5346 15.2334 15.7493C15.7481 14.016 16.3686 12.3148 16.9639 10.6069C17.1869 9.9664 17.2371 9.36345 16.4932 9.10767C15.7255 8.84395 15.7522 9.62466 15.5921 10.0165C14.8836 11.7523 14.243 13.5169 13.5575 15.2628C13.1567 16.2838 12.9757 16.3193 12.0186 15.7568C11.192 15.2711 10.3852 14.7195 9.5026 14.3698C7.82468 13.7047 7.37948 12.9231 7.98844 11.1877C9.02037 8.24851 10.0939 5.32473 11.1451 2.3926C11.3159 1.9165 11.5492 1.38783 10.8908 1.10409C10.2626 0.83328 9.85851 1.19129 9.64249 1.74626C8.46696 4.76643 7.28979 7.75447 7.07213 11.0876C6.96762 12.6903 7.33299 13.8441 8.2958 14.9932C10.1412 17.1964 10.5666 19.788 10.0823 22.5607C9.99264 23.0744 10.1124 24.0445 9.25613 23.8726C8.46532 23.7136 8.93684 22.9067 9.02284 22.4063C9.45404 19.9015 9.10019 17.6011 7.48482 15.5728C7.06966 15.0516 6.66149 14.51 6.35249 13.9225C6.13607 13.5119 5.96984 12.9999 5.99576 12.5455C6.08546 10.972 6.28542 9.40518 6.4068 7.83292C6.43972 7.40605 6.41709 6.94247 6.27925 6.54565C6.18832 6.28319 5.85216 5.95397 5.61557 5.94562C5.41355 5.93811 5.09632 6.3099 5.00538 6.57528C4.73424 7.366 4.6252 8.21805 4.31702 8.99083C3.03492 12.2042 3.00694 15.4409 3.99115 18.7281C4.21169 19.4655 4.31167 20.2407 4.54126 20.9743C5.28929 23.364 5.30534 25.7199 4.34294 28.0557C4.259 28.2598 4.2302 28.4867 4.16396 28.7513C6.18297 29.7961 8.1522 30.8151 10.2218 31.8858ZM10.2477 13.3304C11.5582 9.66471 12.8412 6.11253 14.0879 2.54783C14.2566 2.06505 14.4244 1.40911 13.6994 1.1963C13.0131 0.995179 12.7033 1.47712 12.4902 2.07673C11.6488 4.44138 10.7793 6.79601 9.93257 9.15899C9.52893 10.2852 9.15245 11.421 8.7377 12.6281C9.24996 12.8664 9.6606 13.0571 10.2477 13.3304ZM12.5589 14.7892C13.3592 12.6632 14.1726 10.5802 14.9235 8.47425C15.2712 7.49952 15.5576 6.49141 15.7444 5.47453C15.802 5.16242 15.4374 4.7706 15.2667 4.41509C15.0021 4.63124 14.6005 4.79397 14.4944 5.07229C13.5024 7.66851 12.6009 10.301 11.5846 12.8873C11.2036 13.8566 11.4171 14.3882 12.5589 14.7892Z" fill="#663F47"/>
</g>
<defs>
<clipPath id="clip0_7_122">
<rect width="38" height="38" fill="white"/>
</clipPath>
</defs>
</svg>
