<svg width="300" height="87" viewBox="0 0 300 87" fill="none" xmlns="http://www.w3.org/2000/svg">
<path fill-rule="evenodd" clip-rule="evenodd" d="M66.6734 21.1606C63.5589 21.5807 61.9224 20.9506 59.2302 21.0031C56.274 21.0556 54.2152 22.5783 52.6843 23.4708C52.2092 23.1033 51.6813 22.9458 51.1006 23.0508C50.52 23.1558 50.0449 23.5234 49.7809 23.9959C48.0389 23.7334 45.4522 22.9458 42.5488 23.9959C40.0677 24.8885 38.748 26.0961 35.6863 26.8311C35.3167 26.8836 35 26.9361 35 26.9361C35 26.9361 35.3167 26.9361 35.6863 26.9361C36.8476 26.8836 37.8506 26.7261 39.0648 26.4636C40.3317 26.1486 41.493 25.7285 42.8128 25.571C44.3437 25.361 45.505 25.5185 46.4024 25.7285C47.8277 26.0436 48.9363 26.5161 50.1504 26.8836C50.2032 26.9887 50.3088 27.0412 50.3616 27.0937C50.3616 27.1462 50.3088 27.1462 50.3088 27.1987C50.0977 27.7237 49.4642 28.1963 48.9891 28.6163C48.7779 28.9313 49.517 29.0888 49.8337 29.1413C51.4702 29.2989 53.0011 28.9838 54.4791 28.3013C54.7431 28.1438 55.3766 27.7237 55.0598 27.5137C54.4791 27.2512 53.6873 27.0937 53.3178 26.6736C53.3178 26.6211 53.265 26.6211 53.2122 26.5686C53.265 26.5161 53.3178 26.4111 53.3706 26.3586C54.3208 25.571 55.1654 24.7835 56.3268 23.9959C57.0658 23.4708 58.0688 22.8933 59.5997 22.5783C60.9194 22.2632 62.1863 22.2632 63.4533 22.0532C64.6674 21.8957 65.6704 21.6332 66.779 21.2657C67.0957 21.1606 67.4125 21.0556 67.4125 21.0556C67.4125 21.0556 67.0429 21.1081 66.6734 21.1606Z" fill="#663F47" fill-opacity="0.31"/>
<path opacity="0.53" fill-rule="evenodd" clip-rule="evenodd" d="M235.967 61.0104C234.489 63.3731 232.958 64.1082 231.48 65.9458C229.791 67.9935 229.791 70.4087 229.632 71.9838C229.052 72.0363 228.576 72.3514 228.365 72.7714C228.101 73.2439 228.154 73.769 228.365 74.2415C227.098 75.2391 224.987 76.4992 224.089 79.1245C223.35 81.3821 223.561 83.0098 222.347 85.53C222.189 85.7925 222.083 86.055 222.083 86.055C222.083 86.055 222.242 85.845 222.453 85.5825C223.086 84.7949 223.561 84.0074 224.037 83.0098C224.564 81.9597 224.881 80.9096 225.515 79.912C226.254 78.7044 227.046 78.0744 227.732 77.6018C228.84 76.8143 229.843 76.3942 230.899 75.8167C231.005 75.8167 231.11 75.8167 231.216 75.7642C231.216 75.8167 231.269 75.8167 231.269 75.8692C231.585 76.3417 231.585 77.0243 231.638 77.6543C231.797 77.9694 232.324 77.5493 232.536 77.4443C233.644 76.3942 234.278 75.2391 234.594 73.769C234.594 73.5065 234.647 72.8239 234.278 72.8764C233.75 73.1389 233.116 73.559 232.588 73.5065C232.536 73.5065 232.536 73.5065 232.483 73.5065C232.43 73.4015 232.43 73.349 232.377 73.2965C232.272 72.1939 232.166 71.0913 232.219 69.8312C232.272 68.9911 232.377 67.9935 232.958 66.7334C233.486 65.6833 234.172 64.7907 234.806 63.7931C235.386 62.8481 235.756 62.008 236.125 61.0629C236.231 60.7479 236.336 60.4854 236.336 60.4854C236.336 60.4854 236.125 60.7479 235.967 61.0104Z" fill="#663F47" fill-opacity="0.31"/>
<path opacity="0.53" fill-rule="evenodd" clip-rule="evenodd" d="M299.736 58.5426C298.416 60.5903 297.149 61.2203 295.83 62.848C294.352 64.6331 294.352 66.7333 294.193 68.0984C293.718 68.1509 293.296 68.4135 293.085 68.8335C292.874 69.201 292.874 69.6736 293.085 70.0936C291.976 70.9862 290.128 72.0888 289.337 74.399C288.703 76.3416 288.862 77.7593 287.806 79.9645C287.7 80.227 287.595 80.437 287.595 80.437C287.595 80.437 287.753 80.2795 287.911 80.017C288.439 79.3344 288.914 78.6518 289.284 77.7593C289.706 76.8667 290.023 75.9216 290.604 75.029C291.237 73.9789 291.976 73.4539 292.557 73.0339C293.507 72.3513 294.404 71.9838 295.302 71.4587C295.407 71.4587 295.46 71.4587 295.566 71.4587C295.566 71.5112 295.619 71.5112 295.619 71.5637C295.882 71.9838 295.882 72.5613 295.935 73.0864C296.041 73.4014 296.516 73.0339 296.727 72.8763C297.677 71.9838 298.258 70.9337 298.522 69.6736C298.522 69.4636 298.575 68.8335 298.258 68.886C297.783 69.096 297.255 69.4635 296.78 69.4635C296.727 69.4635 296.727 69.4635 296.674 69.4635C296.622 69.411 296.622 69.306 296.569 69.2535C296.516 68.2559 296.358 67.3634 296.41 66.2083C296.41 65.4732 296.516 64.5806 297.044 63.478C297.519 62.533 298.152 61.7979 298.68 60.9053C299.208 60.0652 299.525 59.3827 299.842 58.5426C299.947 58.2801 300 58.0701 300 58.0701C300 58.0701 299.894 58.3326 299.736 58.5426Z" fill="#663F47" fill-opacity="0.31"/>
<path fill-rule="evenodd" clip-rule="evenodd" d="M23.6495 86.685C21.3796 85.2674 20.6933 83.9548 18.9513 82.5372C16.9981 80.962 14.7809 80.8045 13.3028 80.5945C13.1973 80.122 12.9333 79.7019 12.511 79.4394C12.0887 79.1769 11.6136 79.1769 11.1385 79.3344C10.1355 78.2318 8.92134 76.2891 6.44026 75.3966C4.3287 74.609 2.85061 74.6615 0.475101 73.5064C0.211156 73.4014 0 73.2964 0 73.2964C0 73.2964 0.211156 73.4539 0.422312 73.6639C1.16136 74.2415 1.9004 74.714 2.85061 75.1865C3.80081 75.6591 4.8038 76.0266 5.80679 76.6567C6.91536 77.3392 7.54883 78.0743 8.02393 78.7044C8.76298 79.7019 9.23808 80.5945 9.81876 81.4871C9.81876 81.5921 9.81876 81.6446 9.87155 81.7496C9.81876 81.7496 9.81876 81.7496 9.76597 81.8021C9.34366 82.0121 8.71019 81.9596 8.12951 82.0121C7.81277 82.1171 8.23509 82.5897 8.39345 82.7997C9.39645 83.7973 10.505 84.4273 11.8775 84.7424C12.1415 84.7424 12.7222 84.8474 12.6694 84.5324C12.3526 84.0073 11.9831 83.4823 11.9831 83.0097C11.9831 82.9572 11.9831 82.9572 11.9831 82.9047C12.0359 82.9047 12.1415 82.8522 12.1943 82.7997C13.25 82.7997 14.2002 82.7472 15.4144 82.9047C16.1534 83.0097 17.1564 83.1672 18.3178 83.7448C19.3208 84.2698 20.1654 84.8999 21.0628 85.4774C21.9602 86.0025 22.7521 86.4225 23.5967 86.7901C23.8606 86.8951 24.1246 87.0001 24.1246 87.0001C24.1246 87.0001 23.9134 86.8426 23.6495 86.685Z" fill="#663F47" fill-opacity="0.31"/>
<path fill-rule="evenodd" clip-rule="evenodd" d="M224.353 19.2692C222.875 17.274 223.034 15.5938 222.083 13.7037C221.028 11.551 218.758 11.0785 217.28 10.6059C217.491 10.0284 217.491 9.50332 217.227 9.13579C216.91 8.76826 216.435 8.66325 215.802 8.76826C215.485 7.29813 215.485 4.88292 213.426 3.4653C211.684 2.25769 209.995 2.10018 208.253 0.367532C208.042 0.157514 207.883 0 207.883 0C207.883 0 207.989 0.210018 208.094 0.472541C208.517 1.26011 208.992 1.94267 209.678 2.62523C210.417 3.36029 211.209 3.93784 211.842 4.77791C212.581 5.7755 212.74 6.72058 212.845 7.50815C212.951 8.76826 212.845 9.92336 212.845 11.0785C212.793 11.1835 212.74 11.2885 212.687 11.3935C212.634 11.3935 212.581 11.3935 212.581 11.446C211.948 11.656 211.314 11.4985 210.681 11.446C210.259 11.551 210.364 12.181 210.417 12.3911C210.787 13.7037 211.578 14.6488 212.845 15.2263C213.109 15.2788 213.69 15.4888 213.848 15.1213C213.901 14.4913 213.848 13.8087 214.165 13.2836C214.165 13.2311 214.218 13.1786 214.218 13.1786C214.323 13.1786 214.429 13.1261 214.482 13.1261C215.59 13.2836 216.699 13.3361 217.913 13.7037C218.705 13.9137 219.602 14.2287 220.5 15.1213C221.292 15.7514 221.714 16.6439 222.347 17.484C222.928 18.2716 223.509 18.8491 224.248 19.3742C224.459 19.5317 224.67 19.6892 224.67 19.6892C224.67 19.6892 224.512 19.4792 224.353 19.2692Z" fill="#663F47" fill-opacity="0.31"/>
<path fill-rule="evenodd" clip-rule="evenodd" d="M186.979 46.8865C184.867 47.6216 183.495 47.149 181.647 47.4641C179.535 47.8316 178.585 49.6693 177.793 50.7719C177.371 50.4568 176.896 50.2993 176.526 50.4568C176.157 50.6143 175.946 51.0344 175.893 51.5594C174.573 51.4544 172.462 50.8769 170.72 52.2945C169.242 53.5021 168.714 54.8672 166.76 55.9173C166.549 56.0223 166.338 56.1273 166.338 56.1273C166.338 56.1273 166.549 56.0748 166.813 56.0223C167.605 55.8648 168.291 55.6023 169.03 55.1822C169.822 54.7622 170.561 54.1847 171.406 53.8696C172.462 53.5021 173.306 53.5546 173.993 53.7121C175.101 53.9221 176.051 54.2897 177.054 54.6047C177.107 54.6572 177.213 54.7622 177.265 54.8147C177.265 54.8672 177.265 54.9197 177.265 54.9197C177.318 55.4973 177.002 56.0223 176.79 56.5474C176.738 56.9149 177.318 56.9674 177.529 57.0199C178.744 57.0199 179.747 56.5474 180.538 55.6548C180.644 55.4448 180.961 54.9722 180.697 54.7622C180.169 54.5522 179.588 54.4472 179.166 54.0271C179.113 53.9746 179.113 53.9746 179.06 53.9221C179.06 53.8171 179.06 53.7646 179.06 53.6596C179.483 52.767 179.799 51.8219 180.38 50.8769C180.75 50.2468 181.277 49.5643 182.228 49.0392C183.072 48.6192 183.917 48.4617 184.814 48.1466C185.606 47.8316 186.24 47.4641 186.926 46.9915C187.243 46.834 187.401 46.729 187.401 46.729C187.401 46.729 187.19 46.7815 186.979 46.8865Z" fill="#663F47" fill-opacity="0.31"/>
</svg>
