<svg width="37" height="38" viewBox="0 0 37 38" fill="none" xmlns="http://www.w3.org/2000/svg">
<g clip-path="url(#clip0_7_186)">
<path d="M21.8893 21.5989C22.9374 19.9554 25.7259 18.0527 28.7853 16.5368C29.4831 17.6049 29.7875 17.9903 29.7875 17.9903L30.36 17.3592C30.7265 16.9548 30.7642 16.3522 30.4543 15.9016C30.4489 15.8949 30.4449 15.8881 30.4395 15.8799C30.4584 15.8202 30.4638 15.8026 30.4826 15.7429C34.4149 14.1482 34.7543 11.4638 34.7543 11.4638C34.7543 11.4638 30.7547 7.85786 27.3169 9.08336C25.3824 9.77279 26.4898 12.6174 27.8301 14.9747C24.333 16.4839 18.5256 19.5049 19.1291 23.8111C19.1291 23.8111 23.4331 23.8341 24.4381 24.1178C25.4444 24.4014 29.8643 24.4951 29.8643 24.4951C22.0753 28.0779 21.1403 30.552 21.1403 30.552C18.597 29.4229 16.0873 23.0104 15.6657 20.4657C15.2454 17.9211 12.1093 8.68436 12.1093 8.68436L11.235 11.6131C11.1811 11.7949 11.169 11.9849 11.2 12.1722C11.4397 13.5782 12.504 19.7681 12.8596 20.7032C13.1344 21.4252 13.3607 23.1501 13.9589 25.1804C14.138 25.7898 13.9184 26.448 13.4092 26.8239C11.6216 28.1444 7.47651 30.9619 5.0005 30.6796C1.69467 30.3009 1.19624 25.2021 4.09524 21.3275C4.03058 21.3614 2.70097 22.4865 1.19624 25.2021C-0.18456 27.6939 -1.11138 33.0776 2.7562 34.6071C5.37635 35.644 11.1528 32.6271 15.2278 28.4484C15.275 28.5407 15.3235 28.6344 15.372 28.7266C16.8659 31.5386 19.3972 33.6463 22.3932 34.6804L25.7839 35.8503C25.9469 35.9059 26.126 35.9032 26.2796 35.8286C26.281 35.8272 26.281 35.8272 26.2823 35.8272C27.2724 35.3414 28.1117 33.6992 28.1117 33.6992C28.1117 33.6992 21.531 31.559 22.6841 30.0824C23.7066 28.7728 32.541 25.7464 34.4741 24.852C36.2847 24.0146 37.0013 21.7876 37.0013 21.7876C35.3632 22.5883 21.8893 21.5989 21.8893 21.5989ZM27.9191 10.5219C29.5343 9.81486 31.4701 10.7744 32.4629 12.2889C32.4629 12.2889 32.2527 13.1846 29.6097 14.2446C29.5545 14.2663 29.4965 14.2894 29.4346 14.3151C28.563 12.8888 27.3802 10.7581 27.9191 10.5219Z" fill="#663F47"/>
<path d="M14.2175 7.92979C14.2175 7.92979 15.8556 6.48443 19.7852 5.25893C23.7147 4.03343 25.4606 2.91786 25.5387 1.62993C25.5387 1.62993 23.7511 2.81471 22.8876 3.18521C19.1763 4.77986 14.716 5.90357 14.2175 7.92979Z" fill="#663F47"/>
<path d="M6.16309 7.58236C6.16309 7.58236 8.1191 5.95379 13.0132 4.27907C17.9073 2.60436 20.2203 1.292 20.2055 0C20.2055 0 17.8453 1.38564 16.7797 1.85521C12.1955 3.87193 6.61841 5.50593 6.16309 7.58236Z" fill="#663F47"/>
<path d="M30.3735 3.59371C30.3735 3.59371 33.0301 0.221208 29.4117 0.40985C29.4117 0.40985 27.5715 0.72335 28.0861 2.24742C28.2667 2.78078 28.6277 3.28971 29.0224 3.72535C28.2128 4.39578 27.1539 4.98342 26.3039 5.22635C26.3039 5.22635 25.3838 5.50999 25.1494 6.68799C25.1494 6.68799 28.0511 5.84521 29.6852 4.37542C30.1849 4.81785 30.5972 5.09064 30.5972 5.09064L30.8935 4.28856C30.8935 4.28856 30.6053 4.10264 30.2415 3.77828C30.2873 3.71856 30.3331 3.65614 30.3735 3.59371ZM29.6286 3.15264C29.2271 2.67356 28.8702 2.07099 28.8042 1.40192C28.7839 1.20106 28.9416 1.02599 29.1423 1.03006C29.5841 1.03549 30.2968 1.16985 30.2644 1.96106C30.2483 2.32342 30.0058 2.73871 29.6286 3.15264Z" fill="#663F47"/>
<path d="M21.7964 9.81485L21.17 10.4581C21.0771 10.5531 21.0488 10.6929 21.0959 10.8164C21.3384 11.4543 22.0187 13.4059 21.4071 13.6949C20.6743 14.041 19.7232 12.1559 19.9563 9.97092L19.3797 10.3767C19.2598 10.4622 19.2019 10.6128 19.2383 10.7553C19.4066 11.4393 19.8013 13.3828 18.8638 13.4737C17.8763 13.5687 17.8507 13.0652 17.8346 12.0446C17.8184 11.0241 17.7093 10.2532 16.6181 10.9454C16.6181 10.9454 17.1947 10.9291 17.1165 11.5113C17.0384 12.0921 16.8202 14.5431 18.1619 14.6218C19.5036 14.7006 19.7838 13.4126 19.7838 13.4126C19.7838 13.4126 19.9549 14.6694 21.0003 14.402C22.0456 14.136 22.7785 13.0353 21.7964 9.81485Z" fill="#663F47"/>
<path d="M5.42218 17.1054C5.42218 17.1054 7.69881 15.5189 7.74596 13.7126C7.79311 11.9062 6.28029 11.7325 5.31306 11.9374C4.34583 12.141 2.28743 13.6501 1.77283 14.8906C1.77283 14.8906 2.76431 15.7496 3.53082 15.9491C3.76387 16.0102 4.00905 15.9301 4.16666 15.7483L4.56541 15.2841C4.56541 15.2841 2.58514 14.5934 2.78721 14.1374C2.98928 13.6814 5.42083 12.4043 6.21832 13.1168C7.44824 14.2134 5.42218 17.1054 5.42218 17.1054Z" fill="#663F47"/>
<path d="M30.6686 29.6604L30.4813 29.8137C30.4813 29.8137 30.2631 28.5258 31.8069 28.2584C33.3507 27.9911 33.3817 28.1648 33.3817 28.1648C33.3817 28.1648 31.9982 29.7201 31.9254 30.8044C31.8527 31.8888 33.9582 31.4016 34.8931 30.8044C34.8931 30.8044 34.3314 32.4072 32.4131 32.3434C30.4948 32.281 30.2294 31.426 31.2438 30.2276C32.2568 29.0293 32.18 28.9343 32.18 28.9343L31.3367 28.9451C31.1091 28.9479 30.9151 29.1094 30.8666 29.3319C30.841 29.4622 30.7696 29.5776 30.6686 29.6604Z" fill="#663F47"/>
<path d="M16.1978 33.7264L15.7451 34.637C15.7451 34.637 14.6849 34.5746 14.4196 35.6114C14.1542 36.6483 14.0302 37.8901 13.3594 38H13.0468C13.0468 38 12.4393 34.6384 11.4869 34.6071C11.4869 34.6071 12.2197 33.8064 12.7815 34.5909C13.3432 35.3766 13.5763 36.0837 13.5763 36.0837C13.5763 36.0837 14.4667 33.3966 16.1978 33.7264Z" fill="#663F47"/>
</g>
<defs>
<clipPath id="clip0_7_186">
<rect width="37" height="38" fill="white"/>
</clipPath>
</defs>
</svg>
