<svg width="54" height="39" viewBox="0 0 54 39" fill="none" xmlns="http://www.w3.org/2000/svg">
<g clip-path="url(#clip0_7_125)">
<path d="M7.13693 13.488C7.41224 12.5565 6.86258 11.573 5.90923 11.2912C4.95589 11.0095 3.95988 11.5361 3.68458 12.4675C3.40927 13.399 3.95893 14.3825 4.91227 14.6643C5.86562 14.946 6.86163 14.4194 7.13693 13.488Z" fill="#663F47"/>
<path d="M6.56774 16.23C6.0883 15.3722 4.99535 15.0491 4.12658 15.5085C3.2578 15.9679 2.94219 17.0357 3.42163 17.8936C3.90107 18.7514 4.99401 19.0745 5.86279 18.6151C6.73156 18.1557 7.04718 17.0879 6.56774 16.23Z" fill="#663F47"/>
<path d="M7.85637 20.0262C7.37693 19.1684 6.28399 18.8453 5.41521 19.3047C4.54644 19.7641 4.23082 20.8319 4.71026 21.6898C5.1897 22.5476 6.28265 22.8707 7.15142 22.4113C8.0202 21.9519 8.33582 20.8841 7.85637 20.0262Z" fill="#663F47"/>
<path d="M10.8444 24.4728C11.1197 23.5413 10.57 22.5578 9.61669 22.2761C8.66335 21.9943 7.66734 22.5209 7.39203 23.4524C7.11673 24.3838 7.66639 25.3673 8.61973 25.6491C9.57308 25.9309 10.5691 25.4042 10.8444 24.4728Z" fill="#663F47"/>
<path d="M14.0604 26.7269C14.3357 25.7954 13.786 24.8119 12.8327 24.5302C11.8794 24.2484 10.8833 24.775 10.608 25.7065C10.3327 26.6379 10.8824 27.6214 11.8357 27.9032C12.7891 28.185 13.7851 27.6583 14.0604 26.7269Z" fill="#663F47"/>
<path d="M17.8437 28.3739C18.119 27.4424 17.5694 26.4589 16.616 26.1772C15.6627 25.8954 14.6667 26.422 14.3914 27.3535C14.1161 28.2849 14.6657 29.2684 15.6191 29.5502C16.5724 29.832 17.5684 29.3053 17.8437 28.3739Z" fill="#663F47"/>
<path d="M20.9575 26.9544C20.0606 26.527 18.9894 26.8893 18.5649 27.7636C18.1404 28.6379 18.5234 29.6931 19.4204 30.1204C20.3173 30.5478 21.3885 30.1855 21.813 29.3112C22.2375 28.4369 21.8545 27.3817 20.9575 26.9544Z" fill="#663F47"/>
<path d="M25.353 26.9767C24.4885 26.4884 23.3928 26.775 22.9058 27.6167C22.4188 28.4584 22.7249 29.5366 23.5894 30.0249C24.4539 30.5131 25.5496 30.2266 26.0366 29.3849C26.5236 28.5432 26.2175 27.465 25.353 26.9767Z" fill="#663F47"/>
<path d="M30.2688 27.8838C30.1583 26.9154 29.2693 26.2083 28.2832 26.3044C27.297 26.4005 26.5871 27.2635 26.6976 28.2319C26.8081 29.2003 27.6971 29.9074 28.6833 29.8113C29.6694 29.7151 30.3793 28.8522 30.2688 27.8838Z" fill="#663F47"/>
<path d="M34.1451 27.5117C34.4204 26.5803 33.8708 25.5968 32.9174 25.315C31.9641 25.0332 30.9681 25.5599 30.6928 26.4913C30.4175 27.4227 30.9671 28.4062 31.9205 28.688C32.8738 28.9698 33.8698 28.4431 34.1451 27.5117Z" fill="#663F47"/>
<path d="M38.1236 26.3128C38.3989 25.3814 37.8493 24.3979 36.8959 24.1161C35.9426 23.8343 34.9466 24.3609 34.6713 25.2924C34.396 26.2238 34.9456 27.2073 35.899 27.4891C36.8523 27.7709 37.8483 27.2442 38.1236 26.3128Z" fill="#663F47"/>
<path d="M8.85552 8.49039C8.37608 7.63253 7.28313 7.30949 6.41436 7.76886C5.54558 8.22824 5.22997 9.29607 5.70941 10.1539C6.18885 11.0118 7.2818 11.3348 8.15057 10.8755C9.01934 10.4161 9.33496 9.34826 8.85552 8.49039Z" fill="#663F47"/>
<path d="M12.0009 6.00575C11.5215 5.14789 10.4285 4.82485 9.55974 5.28422C8.69097 5.7436 8.37535 6.81143 8.85479 7.66929C9.33424 8.52715 10.4272 8.85019 11.296 8.39082C12.1647 7.93145 12.4803 6.86361 12.0009 6.00575Z" fill="#663F47"/>
<path d="M16.2205 6.28374C16.4958 5.3523 15.9461 4.3688 14.9928 4.08702C14.0394 3.80524 13.0434 4.3319 12.7681 5.26333C12.4928 6.19477 13.0425 7.17827 13.9958 7.46005C14.9492 7.74182 15.9452 7.21517 16.2205 6.28374Z" fill="#663F47"/>
<path d="M20.1451 6.14017C20.4204 5.20874 19.8708 4.22524 18.9174 3.94346C17.9641 3.66168 16.9681 4.18833 16.6928 5.11977C16.4175 6.0512 16.9671 7.03471 17.9205 7.31649C18.8738 7.59826 19.8698 7.07161 20.1451 6.14017Z" fill="#663F47"/>
<path d="M24.2163 6.8132C24.4916 5.88177 23.942 4.89826 22.9886 4.61649C22.0353 4.33471 21.0393 4.86136 20.764 5.7928C20.4887 6.72423 21.0383 7.70773 21.9917 7.98951C22.945 8.27129 23.941 7.74464 24.2163 6.8132Z" fill="#663F47"/>
<path d="M28.0569 8.18414C28.1759 7.21958 27.4738 6.33313 26.4887 6.2042C25.5035 6.07528 24.6084 6.75269 24.4894 7.71725C24.3704 8.68181 25.0725 9.56826 26.0576 9.69719C27.0428 9.82611 27.9379 9.1487 28.0569 8.18414Z" fill="#663F47"/>
<path d="M31.4189 9.47928C30.9394 8.62142 29.8465 8.29838 28.9777 8.75775C28.1089 9.21712 27.7933 10.285 28.2728 11.1428C28.7522 12.0007 29.8452 12.3237 30.7139 11.8643C31.5827 11.405 31.8983 10.3371 31.4189 9.47928Z" fill="#663F47"/>
<path d="M34.0953 11.4985C33.3198 10.8817 32.1893 10.9919 31.5701 11.7446C30.9509 12.4973 31.0775 13.6075 31.853 14.2243C32.6284 14.8411 33.759 14.7309 34.3782 13.9782C34.9974 13.2255 34.8707 12.1153 34.0953 11.4985Z" fill="#663F47"/>
<path d="M37.4297 16.399C37.705 15.4675 37.1554 14.484 36.202 14.2023C35.2487 13.9205 34.2527 14.4471 33.9774 15.3786C33.7021 16.31 34.2517 17.2935 35.2051 17.5753C36.1584 17.8571 37.1544 17.3304 37.4297 16.399Z" fill="#663F47"/>
<path d="M40.1171 19.5681C40.3924 18.6367 39.8427 17.6532 38.8894 17.3714C37.9361 17.0896 36.94 17.6163 36.6647 18.5477C36.3894 19.4792 36.9391 20.4627 37.8924 20.7444C38.8458 21.0262 39.8418 20.4996 40.1171 19.5681Z" fill="#663F47"/>
<path d="M41.2607 23.5738C41.536 22.6424 40.9863 21.6589 40.033 21.3771C39.0796 21.0953 38.0836 21.622 37.8083 22.5534C37.533 23.4849 38.0827 24.4684 39.036 24.7501C39.9893 25.0319 40.9853 24.5053 41.2607 23.5738Z" fill="#663F47"/>
<path d="M43.2812 22.6275L43.8638 22.7997L43.0392 25.5895L42.4566 25.4173C41.4914 25.132 41.9039 23.7364 41.9039 23.7364C41.9039 23.7364 42.3145 22.3418 43.2812 22.6275Z" fill="#663F47"/>
<path d="M44.6786 23.0329L43.8503 25.8354C43.8038 25.9928 43.6351 26.082 43.474 26.0344C43.3128 25.9867 43.2197 25.8201 43.2663 25.6627L44.0942 22.8617C44.1407 22.7043 44.3094 22.6151 44.4705 22.6627C44.632 22.7089 44.7251 22.8755 44.6786 23.0329Z" fill="#663F47"/>
<path d="M50.121 24.7027L50.0749 24.8587C49.2146 24.7954 47.7691 24.6371 45.827 24.3336C45.827 24.3336 48.372 25.2753 49.819 25.7244L49.6134 26.4201C48.1533 26.0099 45.5067 25.4172 45.5067 25.4172C47.3018 26.2183 48.601 26.8712 49.3575 27.2858L49.3114 27.4418C47.6627 26.7543 43.7595 25.3485 45.4632 26.0462C47.3412 26.8152 49.1162 28.1024 49.1162 28.1024L48.8748 28.919C48.3703 28.1968 45.765 26.9407 44.4923 26.3567C44.0819 26.1682 43.8503 25.8354 43.9334 25.5543L44.581 23.3632C44.664 23.0821 45.0394 22.9287 45.4864 22.9936C46.872 23.1953 49.7416 23.5574 50.5576 23.2256L50.3162 24.0421C50.3162 24.0421 48.1267 24.1575 46.1324 23.782C44.3232 23.4414 48.3634 24.3834 50.121 24.7027Z" fill="#663F47"/>
</g>
<defs>
<clipPath id="clip0_7_125">
<rect width="26" height="48" fill="white" transform="translate(0 24.9337) rotate(-73.534)"/>
</clipPath>
</defs>
</svg>
